<svg xmlns="http://www.w3.org/2000/svg" fill="none" viewBox="0 0 100 100"><path fill="#6cb52d" d="M91.06 5.75a44 44 0 0 1-5.35 9.36A50 50 0 0 0 49.96 0 50 50 0 0 0 0 49.94c0 14.42 6.17 27.4 15.95 36.56l1.86 1.66A49.7 49.7 0 0 0 49.94 99.9c26.26 0 47.88-20.48 49.74-46.35 1.48-12.56-2.33-28.63-8.62-47.8M23.19 86.92a4.25 4.25 0 1 1-.62-5.97 4.33 4.33 0 0 1 .62 5.97m67.57-14.94C78.5 88.36 52.14 82.81 35.35 83.63c0 0-3 .2-5.97.62 0 0 1.14-.52 2.57-1.04 11.85-4.12 17.42-4.96 24.63-8.65 13.5-6.91 26.97-22.05 29.67-37.7-5.15 15.04-20.8 28.02-35.02 33.27-9.79 3.61-27.4 7.1-27.4 7.1l-.72-.41c-11.94-5.87-12.36-31.83 9.49-40.18 9.58-3.72 18.65-1.66 29.06-4.12 11.02-2.57 23.8-10.82 28.93-21.62 5.72 17.41 12.73 44.39.17 61.09"/><path fill="#6cb52d" d="M23.19 86.92a4.25 4.25 0 1 1-.62-5.97 4.33 4.33 0 0 1 .62 5.97"/></svg>